<svg preserveAspectRatio="none" id="visual" viewBox="0 0 900 600" width="900" height="600" xmlns="http://www.w3.org/2000/svg" xmlns:xlink="http://www.w3.org/1999/xlink" version="1.1"><rect x="0" y="0" width="900" height="600" fill="#1D232A"></rect><defs><linearGradient id="grad1_0" x1="33.3%" y1="0%" x2="100%" y2="100%"><stop offset="20%" stop-color="#7bebb4" stop-opacity="1"></stop><stop offset="80%" stop-color="#7bebb4" stop-opacity="1"></stop></linearGradient></defs><defs><linearGradient id="grad1_1" x1="33.3%" y1="0%" x2="100%" y2="100%"><stop offset="20%" stop-color="#7bebb4" stop-opacity="1"></stop><stop offset="80%" stop-color="#22818c" stop-opacity="1"></stop></linearGradient></defs><defs><linearGradient id="grad1_2" x1="33.3%" y1="0%" x2="100%" y2="100%"><stop offset="20%" stop-color="#1d232a" stop-opacity="1"></stop><stop offset="80%" stop-color="#22818c" stop-opacity="1"></stop></linearGradient></defs><defs><linearGradient id="grad2_0" x1="0%" y1="0%" x2="66.7%" y2="100%"><stop offset="20%" stop-color="#7bebb4" stop-opacity="1"></stop><stop offset="80%" stop-color="#7bebb4" stop-opacity="1"></stop></linearGradient></defs><defs><linearGradient id="grad2_1" x1="0%" y1="0%" x2="66.7%" y2="100%"><stop offset="20%" stop-color="#22818c" stop-opacity="1"></stop><stop offset="80%" stop-color="#7bebb4" stop-opacity="1"></stop></linearGradient></defs><defs><linearGradient id="grad2_2" x1="0%" y1="0%" x2="66.7%" y2="100%"><stop offset="20%" stop-color="#22818c" stop-opacity="1"></stop><stop offset="80%" stop-color="#1d232a" stop-opacity="1"></stop></linearGradient></defs><g transform="translate(900, 0)"><path d="M0 486.7C-46.7 442.9 -93.4 399.1 -158.8 383.4C-224.2 367.7 -308.3 380.1 -344.2 344.2C-380.1 308.3 -367.7 224.2 -383.4 158.8C-399.1 93.4 -442.9 46.7 -486.7 0L0 0Z" fill="#284f5f"></path><path d="M0 324.5C-31.1 295.3 -62.3 266.1 -105.9 255.6C-149.5 245.1 -205.5 253.4 -229.5 229.5C-253.4 205.5 -245.1 149.5 -255.6 105.9C-266.1 62.3 -295.3 31.1 -324.5 0L0 0Z" fill="#38b6a9"></path><path d="M0 162.2C-15.6 147.6 -31.1 133 -52.9 127.8C-74.7 122.6 -102.8 126.7 -114.7 114.7C-126.7 102.8 -122.6 74.7 -127.8 52.9C-133 31.1 -147.6 15.6 -162.2 0L0 0Z" fill="#7bebb4"></path></g><g transform="translate(0, 600)"><path d="M0 -486.7C50.4 -447.3 100.8 -407.9 161.5 -389.9C222.2 -371.8 293 -375.1 344.2 -344.2C395.3 -313.3 426.7 -248.3 447.2 -185.2C467.6 -122.2 477.2 -61.1 486.7 0L0 0Z" fill="#284f5f"></path><path d="M0 -324.5C33.6 -298.2 67.2 -272 107.7 -259.9C148.1 -247.9 195.4 -250 229.5 -229.5C263.5 -208.9 284.5 -165.5 298.1 -123.5C311.7 -81.4 318.1 -40.7 324.5 0L0 0Z" fill="#38b6a9"></path><path d="M0 -162.2C16.8 -149.1 33.6 -136 53.8 -130C74.1 -123.9 97.7 -125 114.7 -114.7C131.8 -104.4 142.2 -82.8 149.1 -61.7C155.9 -40.7 159.1 -20.4 162.2 0L0 0Z" fill="#7bebb4"></path></g></svg>